<?xml version="1.0" standalone="no"?>
<!DOCTYPE svg PUBLIC "-//W3C//DTD SVG 20010904//EN"
 "http://www.w3.org/TR/2001/REC-SVG-20010904/DTD/svg10.dtd">
<svg version="1.0" xmlns="http://www.w3.org/2000/svg"
 width="960.000000pt" height="720.000000pt" viewBox="0 0 960.000000 720.000000"
 preserveAspectRatio="xMidYMid meet">

<g transform="translate(0.000000,720.000000) scale(0.100000,-0.100000)"
fill="#000000" stroke="none">
<path d="M262 6984 l-22 -15 0 -3365 0 -3364 4560 0 4560 0 0 3364 0 3365 -22
15 c-20 14 -467 16 -4538 16 -4071 0 -4518 -2 -4538 -16z m1004 -411 c55 -29
101 -84 110 -130 8 -41 -14 -119 -33 -116 -6 1 -17 -4 -23 -12 -10 -12 -10
-15 1 -15 9 -1 4 -9 -11 -22 -16 -13 -20 -22 -13 -25 53 -19 103 -99 103 -165
0 -40 -31 -128 -45 -128 -3 0 -3 5 0 10 4 6 -14 -3 -40 -19 -65 -41 -131 -55
-239 -49 -91 5 -127 16 -178 51 -16 10 -32 16 -37 13 -15 -9 -41 71 -41 125 0
27 7 63 15 78 14 29 63 75 87 83 9 3 3 14 -17 32 -17 15 -24 25 -17 21 6 -3
12 -1 12 5 0 7 -9 14 -21 17 -40 11 -52 97 -23 160 19 40 64 77 120 98 61 23
237 16 290 -12z m3709 -973 c402 -33 695 -154 924 -382 186 -185 302 -420 357
-723 23 -124 27 -540 6 -675 -31 -203 -93 -396 -172 -529 -37 -63 -79 -122
-65 -91 4 8 -12 -7 -36 -35 -223 -260 -502 -409 -864 -461 -131 -18 -448 -21
-580 -4 -397 49 -683 186 -889 425 -33 39 -65 70 -70 70 -6 0 -10 8 -8 17 1 9
-3 20 -9 24 -8 5 -10 2 -5 -7 4 -8 -1 -3 -13 11 -67 83 -163 317 -195 475 -37
188 -48 466 -26 660 66 571 378 978 878 1145 223 74 491 102 767 80z m-1275
-3354 c103 -53 145 -136 138 -270 -5 -76 -31 -161 -48 -151 -4 2 -22 -6 -41
-19 -61 -41 -100 -51 -189 -51 -89 1 -83 -1 -215 73 -35 19 -55 82 -55 170 1
136 61 224 180 263 44 14 191 5 230 -15z m1420 -161 l30 -29 0 27 c0 27 1 27
70 27 l70 0 0 -207 c-1 -158 -4 -214 -15 -233 -7 -14 -17 -25 -22 -25 -4 -1
-34 -11 -66 -23 -70 -27 -144 -28 -218 -5 -30 10 -61 17 -69 18 -14 0 -39 69
-29 79 2 2 35 -1 74 -6 50 -7 73 -15 83 -29 8 -12 25 -19 47 -19 43 0 65 29
65 87 l0 42 -72 -5 c-64 -5 -80 -2 -130 21 -52 24 -59 31 -69 68 -15 55 -5
139 20 181 30 48 74 67 144 63 47 -3 62 -9 87 -32z m608 3 c48 -33 82 -97 82
-159 0 -32 -3 -40 -10 -29 -6 10 -25 15 -62 14 -72 -1 -189 -15 -210 -25 -22
-12 -13 -44 20 -69 31 -25 53 -25 84 0 22 16 35 18 96 13 40 -3 72 -9 72 -12
-1 -19 -33 -43 -62 -47 -18 -3 -46 -9 -62 -14 -16 -6 -57 -10 -91 -10 -50 0
-74 6 -133 35 -63 31 -72 40 -82 73 -28 103 14 201 105 244 62 29 199 21 253
-14z m503 16 c49 -25 59 -64 59 -229 0 -133 -1 -145 -16 -131 -17 18 -99 22
-109 6 -19 -30 -25 2 -25 123 0 90 -4 137 -12 145 -16 16 -50 15 -74 -2 -17
-13 -19 -30 -23 -145 -3 -120 -9 -148 -26 -121 -10 16 -92 12 -109 -6 -15 -14
-16 2 -16 175 l0 191 70 0 c69 0 70 0 70 -27 l0 -26 23 21 c46 43 132 55 188
26z m-2137 -44 c15 -28 31 -48 36 -45 4 3 21 25 37 50 l28 45 84 0 84 0 -25
-32 c-14 -18 -32 -33 -39 -33 -8 0 -14 -9 -14 -20 0 -11 -7 -20 -15 -20 -9 0
-15 -10 -16 -22 -1 -13 -7 -29 -13 -37 -10 -12 -1 -32 52 -108 88 -127 85
-122 40 -103 -21 9 -59 20 -84 25 -72 14 -74 14 -81 25 -4 6 -8 20 -8 32 0 35
-47 43 -71 12 -10 -13 -16 -31 -13 -39 3 -8 2 -11 -2 -8 -3 4 -19 1 -35 -7
-15 -8 -36 -15 -46 -15 -10 -1 -36 -9 -58 -20 -22 -10 -42 -16 -44 -14 -3 2
26 49 64 104 57 84 66 102 55 115 -7 8 -13 25 -14 38 -1 14 -7 21 -16 19 -8
-2 -12 0 -8 3 10 10 -11 47 -21 40 -5 -2 -21 11 -35 30 l-27 35 89 0 89 0 27
-50z m482 -77 l40 -128 35 125 36 125 77 3 c62 2 76 0 70 -10 -5 -7 -47 -114
-94 -238 -58 -152 -90 -225 -100 -226 -8 0 -28 -6 -45 -13 -16 -8 -63 -16
-102 -19 -43 -3 -73 -9 -74 -16 -2 -18 -17 37 -18 64 -1 24 1 25 53 22 49 -3
56 -1 71 22 11 16 14 33 9 48 -5 17 -101 244 -151 356 -4 9 14 12 74 12 l79 0
40 -127z m-847 -855 c-1 -145 -5 -274 -9 -288 -4 -14 -8 -20 -9 -13 -3 30
-126 25 -134 -6 -3 -9 -5 70 -6 175 l-1 191 -32 1 c-39 1 -125 -42 -131 -65
-3 -10 -5 12 -6 49 l-1 66 34 12 c49 16 112 64 138 105 23 34 24 35 91 35 l67
0 -1 -262z m1317 236 c90 -46 137 -182 115 -331 -11 -77 -35 -138 -51 -128 -5
3 -12 0 -16 -6 -3 -6 -30 -22 -58 -35 -67 -31 -168 -33 -228 -4 -23 11 -49 20
-58 20 -13 0 -40 37 -40 55 0 2 24 6 53 10 28 3 64 8 78 11 22 4 28 1 33 -20
7 -28 36 -41 71 -32 25 6 49 50 59 108 l7 36 -80 -5 c-70 -4 -86 -2 -135 20
-30 14 -57 23 -60 20 -12 -12 -36 69 -36 120 0 86 43 141 140 181 33 13 167 0
206 -20z m502 11 c58 -18 111 -71 131 -132 19 -59 25 -173 12 -232 -13 -63
-40 -123 -51 -116 -4 3 -32 -9 -61 -25 -45 -25 -65 -30 -124 -30 -48 0 -84 7
-114 20 -24 11 -49 20 -57 20 -12 0 -44 37 -44 51 0 4 24 10 53 14 28 3 63 8
77 11 20 3 29 -2 42 -27 15 -25 23 -30 50 -27 39 4 63 40 74 112 5 40 4 47 -7
40 -8 -4 -45 -10 -84 -12 -59 -3 -77 1 -119 22 -27 14 -53 23 -57 21 -12 -8
-39 73 -39 116 0 142 149 224 318 174z m527 4 c58 -16 119 -81 139 -148 30
-102 15 -271 -29 -326 -9 -11 -14 -14 -10 -8 3 7 -17 -2 -46 -20 -45 -27 -63
-32 -129 -36 -62 -2 -87 1 -125 18 -26 12 -54 21 -61 21 -7 0 -20 13 -29 29
l-15 29 63 7 c34 3 70 9 79 11 11 3 21 -5 30 -23 11 -22 20 -28 47 -28 43 0
68 32 77 95 l6 46 -93 -1 c-83 0 -99 3 -134 25 -22 14 -44 25 -50 25 -12 0
-34 60 -34 95 -2 78 53 160 124 185 48 17 136 19 190 4z m-1735 -61 c0 -44 -3
-58 -10 -48 -7 11 -33 16 -102 18 -120 4 -141 -6 -148 -71 -5 -40 -4 -47 10
-41 8 3 39 8 67 11 127 14 227 -82 209 -199 -7 -44 -32 -99 -44 -96 -4 2 -33
-10 -65 -26 -80 -40 -169 -40 -252 -2 -31 14 -64 26 -71 26 -15 0 -48 56 -36
63 4 3 42 8 85 12 67 6 77 5 77 -9 0 -27 37 -56 73 -56 54 0 72 29 71 111 -1
91 -19 114 -84 105 -25 -4 -76 -10 -114 -15 -38 -5 -72 -15 -77 -22 -14 -22
-11 13 12 164 l22 137 188 0 189 0 0 -62z m280 -422 l0 -75 -27 15 c-36 18
-80 18 -115 0 l-28 -15 0 75 0 74 85 0 85 0 0 -74z"/>
<path d="M1057 6496 c-20 -15 -31 -60 -28 -113 3 -63 100 -87 141 -35 18 23
21 35 16 77 -5 33 -14 56 -27 68 -25 20 -77 22 -102 3z"/>
<path d="M1058 6214 c-25 -13 -32 -24 -30 -45 1 -4 -3 -22 -8 -40 -31 -109 81
-190 152 -110 27 30 29 38 24 85 -3 28 -6 59 -6 68 -2 24 -48 58 -79 58 -14
-1 -38 -8 -53 -16z"/>
<path d="M4636 4955 c-85 -22 -173 -72 -237 -135 -49 -48 -96 -112 -72 -97 4
3 -9 -29 -29 -71 -21 -43 -47 -112 -58 -155 -53 -210 -52 -529 1 -740 61 -240
204 -386 422 -431 270 -56 522 45 632 255 132 252 141 807 16 1059 -17 34 -29
65 -26 69 9 16 -92 127 -152 167 -98 66 -167 86 -313 90 -87 2 -143 -1 -184
-11z"/>
<path d="M3508 2164 c-34 -18 -52 -75 -53 -164 0 -110 37 -160 118 -160 92 0
131 121 87 270 -17 61 -91 88 -152 54z"/>
<path d="M5029 2023 c-9 -11 -16 -44 -18 -80 -2 -51 1 -65 18 -82 29 -29 65
-27 91 7 19 23 21 35 17 82 -7 60 -30 90 -72 90 -12 0 -28 -8 -36 -17z"/>
<path d="M5545 2046 c-11 -8 -20 -29 -22 -55 l-4 -41 72 0 71 0 -6 28 c-4 15
-7 35 -7 45 0 32 -70 48 -104 23z"/>
<path d="M4872 1302 c-14 -14 -19 -36 -21 -85 -2 -60 1 -70 23 -92 32 -32 70
-32 103 1 24 24 25 30 20 92 -5 52 -11 71 -28 85 -28 22 -74 22 -97 -1z"/>
<path d="M5404 1299 c-15 -16 -19 -36 -19 -91 0 -61 3 -72 24 -89 32 -26 67
-24 98 7 24 24 25 31 20 90 -3 42 -11 72 -22 84 -24 27 -76 26 -101 -1z"/>
<path d="M5937 1303 c-37 -43 -29 -171 13 -193 54 -29 114 12 114 78 0 59 -11
103 -31 118 -25 19 -77 17 -96 -3z"/>
<path d="M19 20 c-24 -19 2 -19 4781 -19 4779 0 4805 0 4781 19 -23 20 -65 20
-4781 20 -4716 0 -4758 0 -4781 -20z"/>
</g>
</svg>
